<?xml version="1.0" encoding="UTF-8"?>
<svg width="24px" height="25px" viewBox="0 0 24 25" version="1.1" xmlns="http://www.w3.org/2000/svg" xmlns:xlink="http://www.w3.org/1999/xlink">
    <!-- Generator: Sketch 40.3 (33839) - http://www.bohemiancoding.com/sketch -->
    <title>backlinks-kw</title>
    <desc>Created with Sketch.</desc>
    <defs></defs>
    <g id="Long-Form" stroke="none" stroke-width="1" fill="none" fill-rule="evenodd">
        <g id="Desktop-HD" transform="translate(-160.000000, -4596.000000)" fill="#73D8C7">
            <g id="Keyword-Research-Tools" transform="translate(-10.000000, 3929.000000)">
                <g id="Five" transform="translate(150.000000, 643.000000)">
                    <path d="M26.9375,41.65625 C27.0000003,41.7343754 27.0781245,41.7929686 27.171875,41.8320312 C27.2656255,41.8710939 27.3593745,41.890625 27.453125,41.890625 C27.5468755,41.890625 27.6406245,41.8710939 27.734375,41.8320312 C27.8281255,41.7929686 27.9140621,41.7343754 27.9921875,41.65625 L37.0859375,32.515625 C37.2265632,32.3593742 37.296875,32.1796885 37.296875,31.9765625 C37.296875,31.7734365 37.2265632,31.6015632 37.0859375,31.4609375 C36.9296867,31.3046867 36.750001,31.2265625 36.546875,31.2265625 C36.343749,31.2265625 36.1640633,31.3046867 36.0078125,31.4609375 L26.9375,40.6015625 C26.7812492,40.7578133 26.703125,40.937499 26.703125,41.140625 C26.703125,41.343751 26.7812492,41.5156243 26.9375,41.65625 L26.9375,41.65625 Z M31.15625,40.0625 C31.2812506,40.6093777 31.2734382,41.1445286 31.1328125,41.6679688 C30.9921868,42.1914089 30.7109396,42.6640604 30.2890625,43.0859375 L27.265625,46.015625 C26.9374984,46.3281266 26.5703145,46.5703116 26.1640625,46.7421875 C25.7578105,46.9140634 25.3281273,47 24.875,47 C24.4218727,47 23.9921895,46.9140634 23.5859375,46.7421875 C23.1796855,46.5703116 22.8125016,46.3281266 22.484375,46.015625 C21.8281217,45.3593717 21.5,44.5625047 21.5,43.625 C21.5,42.6874953 21.8281217,41.8984407 22.484375,41.2578125 L25.4375,38.1875 C25.7500016,37.8749984 26.1132792,37.6328134 26.5273438,37.4609375 C26.9414083,37.2890616 27.3749977,37.203125 27.828125,37.203125 C27.9843758,37.203125 28.136718,37.2148436 28.2851562,37.2382812 C28.4335945,37.2617189 28.5781243,37.2968748 28.71875,37.34375 L29.890625,36.171875 C29.5624984,36.0156242 29.2265642,35.8984379 28.8828125,35.8203125 C28.5390608,35.7421871 28.1875018,35.703125 27.828125,35.703125 C27.2031219,35.703125 26.5898468,35.8242175 25.9882812,36.0664062 C25.3867157,36.308595 24.8515648,36.6640602 24.3828125,37.1328125 L21.4296875,40.1796875 C20.9453101,40.6640649 20.5859387,41.203122 20.3515625,41.796875 C20.1171863,42.390628 20,42.9999969 20,43.625 C20,44.2500031 20.1171863,44.8632782 20.3515625,45.4648438 C20.5859387,46.0664093 20.9453101,46.6015602 21.4296875,47.0703125 C21.8984398,47.5546899 22.4335907,47.9140613 23.0351562,48.1484375 C23.6367218,48.3828137 24.2499969,48.5 24.875,48.5 C25.5000031,48.5 26.1132782,48.3828137 26.7148438,48.1484375 C27.3164093,47.9140613 27.8515602,47.5546899 28.3203125,47.0703125 L31.34375,44.140625 C32.0781287,43.4218714 32.5234367,42.5898485 32.6796875,41.6445312 C32.8359383,40.699214 32.7265644,39.7812545 32.3515625,38.890625 L31.15625,40.0625 L31.15625,40.0625 Z M42.5703125,25.9296875 C42.1015602,25.4453101 41.5664093,25.0859387 40.9648438,24.8515625 C40.3632782,24.6171863 39.7500031,24.5 39.125,24.5 C38.4999969,24.5 37.8867218,24.6171863 37.2851562,24.8515625 C36.6835907,25.0859387 36.1484398,25.4453101 35.6796875,25.9296875 L32.65625,28.859375 C31.9062463,29.6093787 31.4531258,30.4999948 31.296875,31.53125 C31.1406242,32.5625052 31.2812478,33.5312455 31.71875,34.4375 L32.890625,33.265625 C32.7187491,32.6874971 32.6992181,32.0976593 32.8320312,31.4960938 C32.9648444,30.8945282 33.2578102,30.3671898 33.7109375,29.9140625 L36.734375,26.984375 C37.0625016,26.6718734 37.4296855,26.4296884 37.8359375,26.2578125 C38.2421895,26.0859366 38.6718727,26 39.125,26 C39.5781273,26 40.0078105,26.0859366 40.4140625,26.2578125 C40.8203145,26.4296884 41.1874984,26.6718734 41.515625,26.984375 C42.1718783,27.6406283 42.5,28.4374953 42.5,29.375 C42.5,30.3125047 42.1718783,31.1015593 41.515625,31.7421875 L38.4921875,34.7890625 C38.1796859,35.1015641 37.8164083,35.3437491 37.4023438,35.515625 C36.9882792,35.6875009 36.5546898,35.7734375 36.1015625,35.7734375 L35.7734375,35.7734375 C35.664062,35.7734375 35.554688,35.7656251 35.4453125,35.75 L34.25,36.9453125 C34.5468765,37.0703131 34.8515609,37.1562498 35.1640625,37.203125 C35.4765641,37.2500002 35.7890609,37.2734375 36.1015625,37.2734375 C36.7265656,37.2734375 37.3398407,37.152345 37.9414062,36.9101562 C38.5429718,36.6679675 39.0781227,36.3125023 39.546875,35.84375 L42.5703125,32.8203125 C43.0546899,32.3359351 43.4140613,31.796878 43.6484375,31.203125 C43.8828137,30.609372 44,30.0000031 44,29.375 C44,28.7499969 43.8828137,28.1367218 43.6484375,27.5351562 C43.4140613,26.9335907 43.0546899,26.3984398 42.5703125,25.9296875 L42.5703125,25.9296875 Z" id="backlinks"></path>
                </g>
            </g>
        </g>
    </g>
</svg>