<?xml version="1.0" encoding="UTF-8"?>
<svg width="18px" height="25px" viewBox="0 0 18 25" version="1.1" xmlns="http://www.w3.org/2000/svg" xmlns:xlink="http://www.w3.org/1999/xlink">
    <!-- Generator: Sketch 40.3 (33839) - http://www.bohemiancoding.com/sketch -->
    <title>bulb-kw</title>
    <desc>Created with Sketch.</desc>
    <defs></defs>
    <g id="Long-Form" stroke="none" stroke-width="1" fill="none" fill-rule="evenodd">
        <g id="Desktop-HD" transform="translate(-163.000000, -4256.000000)" fill="#73D8C7">
            <g id="Keyword-Research-Tools" transform="translate(-10.000000, 3929.000000)">
                <g id="One" transform="translate(150.000000, 303.000000)">
                    <path d="M32,24.5 C30.8437442,24.5 29.7617238,24.722654 28.7539062,25.1679688 C27.7460887,25.6132835 26.8710975,26.21484 26.1289062,26.9726562 C25.386715,27.7304725 24.8007834,28.6210886 24.3710938,29.6445312 C23.9414041,30.6679739 23.7265625,31.7578067 23.7265625,32.9140625 C23.7265625,34.6640712 24.0703091,36.011714 24.7578125,36.9570312 C25.4453159,37.9023485 26.1249966,38.6796845 26.796875,39.2890625 C27.2343772,39.6796895 27.5859362,40.0117174 27.8515625,40.2851562 C28.1171888,40.5585951 28.25,40.8437485 28.25,41.140625 L28.25,42.40625 C28.25,42.4218751 28.2539062,42.4374999 28.2617188,42.453125 C28.2695313,42.4687501 28.2734375,42.4843749 28.2734375,42.5 L28.25,42.5 L28.25,44.6796875 C28.25,45.8203182 28.5937466,46.742184 29.28125,47.4453125 C29.9687534,48.148441 30.8828068,48.5 32.0234375,48.5 C33.132818,48.5 34.0312466,48.148441 34.71875,47.4453125 C35.4062534,46.742184 35.75,45.8203182 35.75,44.6796875 L35.75,42.5 L35.7265625,42.5 C35.7265625,42.4843749 35.7304687,42.4687501 35.7382812,42.453125 C35.7460938,42.4374999 35.75,42.4218751 35.75,42.40625 L35.75,41.140625 C35.75,40.6874977 35.898436,40.3007829 36.1953125,39.9804688 C36.492189,39.6601546 36.8906225,39.2812522 37.390625,38.84375 C38.0625034,38.249997 38.7109344,37.5234418 39.3359375,36.6640625 C39.9609406,35.8046832 40.2734375,34.5546957 40.2734375,32.9140625 C40.2734375,31.7578067 40.0585959,30.6679739 39.6289062,29.6445312 C39.1992166,28.6210886 38.613285,27.7304725 37.8710938,26.9726562 C37.1289025,26.21484 36.2539113,25.6132835 35.2460938,25.1679688 C34.2382762,24.722654 33.1562558,24.5 32,24.5 L32,24.5 Z M31.9765625,47 C31.273434,47 30.7265645,46.7929708 30.3359375,46.3789062 C29.9453105,45.9648417 29.75,45.3984411 29.75,44.6796875 L29.75,43.671875 C30.0156263,43.7656255 30.3320294,43.8437497 30.6992188,43.90625 C31.0664081,43.9687503 31.4999975,44 32,44 C32.4843774,44 32.9140606,43.9648441 33.2890625,43.8945312 C33.6640644,43.8242184 33.9843737,43.742188 34.25,43.6484375 L34.25,44.6796875 C34.25,45.4140662 34.0507832,45.984373 33.6523438,46.390625 C33.2539043,46.796877 32.6953161,47 31.9765625,47 L31.9765625,47 Z M36.40625,37.71875 C35.8906224,38.1562522 35.4023461,38.6328099 34.9414062,39.1484375 C34.4804664,39.6640651 34.25,40.3281209 34.25,41.140625 L34.25,42.078125 C34.0624991,42.1718755 33.7929705,42.2695307 33.4414062,42.3710938 C33.089842,42.4726568 32.6015656,42.5234375 31.9765625,42.5234375 C31.3359343,42.5234375 30.8437517,42.476563 30.5,42.3828125 C30.1562483,42.289062 29.9062508,42.195313 29.75,42.1015625 L29.75,41.140625 C29.75,40.4999968 29.5429708,39.9531273 29.1289062,39.5 C28.7148417,39.0468727 28.2734398,38.6093771 27.8046875,38.1875 C27.1640593,37.6093721 26.5742214,36.94141 26.0351562,36.1835938 C25.4960911,35.4257775 25.2265625,34.3359446 25.2265625,32.9140625 C25.2265625,31.9609327 25.3984358,31.0664104 25.7421875,30.2304688 C26.0859392,29.3945271 26.562497,28.6601594 27.171875,28.0273438 C27.781253,27.3945281 28.4999959,26.8984393 29.328125,26.5390625 C30.1562541,26.1796857 31.0468702,26 32,26 C32.9531298,26 33.8437459,26.1796857 34.671875,26.5390625 C35.5000041,26.8984393 36.218747,27.3945281 36.828125,28.0273438 C37.437503,28.6601594 37.9140608,29.3945271 38.2578125,30.2304688 C38.6015642,31.0664104 38.7734375,31.9609327 38.7734375,32.9140625 C38.7734375,34.210944 38.5351586,35.1992154 38.0585938,35.8789062 C37.5820289,36.5585971 37.0312531,37.1718723 36.40625,37.71875 L36.40625,37.71875 Z" id="bulb"></path>
                </g>
            </g>
        </g>
    </g>
</svg>