<?xml version="1.0" encoding="UTF-8"?>
<svg width="24px" height="25px" viewBox="0 0 24 25" version="1.1" xmlns="http://www.w3.org/2000/svg" xmlns:xlink="http://www.w3.org/1999/xlink">
    <!-- Generator: Sketch 40.3 (33839) - http://www.bohemiancoding.com/sketch -->
    <title>Chart - simple-line-icons-leads</title>
    <desc>Created with Sketch.</desc>
    <defs></defs>
    <g id="Long-Form" stroke="none" stroke-width="1" fill="none" fill-rule="evenodd">
        <g id="Desktop-HD" transform="translate(-750.000000, -5311.000000)" fill="#999999">
            <g id="Domain-Leads-and-Top-Lists" transform="translate(0.000000, 4984.000000)">
                <g id="Group-2" transform="translate(730.000000, 303.000000)">
                    <path d="M26.375,32 L21.125,32 C20.921874,32 20.7460945,32.074218 20.5976562,32.2226562 C20.449218,32.3710945 20.375,32.546874 20.375,32.75 L20.375,47.75 C20.375,47.953126 20.449218,48.1289055 20.5976562,48.2773438 C20.7460945,48.425782 20.921874,48.5 21.125,48.5 L26.375,48.5 C26.578126,48.5 26.7539055,48.425782 26.9023438,48.2773438 C27.050782,48.1289055 27.125,47.953126 27.125,47.75 L27.125,32.75 C27.125,32.546874 27.050782,32.3710945 26.9023438,32.2226562 C26.7539055,32.074218 26.578126,32 26.375,32 L26.375,32 Z M25.625,47 L21.875,47 L21.875,33.5 L25.625,33.5 L25.625,47 L25.625,47 Z M34.625,36.453125 L29.375,36.453125 C29.1562489,36.453125 28.9765632,36.527343 28.8359375,36.6757812 C28.6953118,36.8242195 28.625,36.999999 28.625,37.203125 L28.625,47.75 C28.625,47.953126 28.6953118,48.1289055 28.8359375,48.2773438 C28.9765632,48.425782 29.1562489,48.5 29.375,48.5 L34.625,48.5 C34.828126,48.5 35.0039055,48.425782 35.1523438,48.2773438 C35.300782,48.1289055 35.375,47.953126 35.375,47.75 L35.375,37.203125 C35.375,36.999999 35.300782,36.8242195 35.1523438,36.6757812 C35.0039055,36.527343 34.828126,36.453125 34.625,36.453125 L34.625,36.453125 Z M33.875,47 L30.125,47 L30.125,37.953125 L33.875,37.953125 L33.875,47 L33.875,47 Z M42.875,24.5 L37.625,24.5 C37.421874,24.5 37.2460945,24.574218 37.0976562,24.7226562 C36.949218,24.8710945 36.875,25.046874 36.875,25.25 L36.875,47.75 C36.875,47.953126 36.949218,48.1289055 37.0976562,48.2773438 C37.2460945,48.425782 37.421874,48.5 37.625,48.5 L42.875,48.5 C43.078126,48.5 43.2539055,48.425782 43.4023438,48.2773438 C43.550782,48.1289055 43.625,47.953126 43.625,47.75 L43.625,25.25 C43.625,25.046874 43.550782,24.8710945 43.4023438,24.7226562 C43.2539055,24.574218 43.078126,24.5 42.875,24.5 L42.875,24.5 Z M42.125,47 L38.375,47 L38.375,26 L42.125,26 L42.125,47 L42.125,47 Z" id="Chart---simple-line-icons"></path>
                </g>
            </g>
        </g>
    </g>
</svg>