<?xml version="1.0" encoding="UTF-8"?>
<svg width="24px" height="25px" viewBox="0 0 24 25" version="1.1" xmlns="http://www.w3.org/2000/svg" xmlns:xlink="http://www.w3.org/1999/xlink">
    <!-- Generator: Sketch 40.3 (33839) - http://www.bohemiancoding.com/sketch -->
    <title>clock-seo</title>
    <desc>Created with Sketch.</desc>
    <defs></defs>
    <g id="Long-Form" stroke="none" stroke-width="1" fill="none" fill-rule="evenodd">
        <g id="Desktop-HD" transform="translate(-160.000000, -3397.000000)" fill="#63C986">
            <g id="SEO-Research" transform="translate(-20.000000, 2742.000000)">
                <g id="Five" transform="translate(160.000000, 631.000000)">
                    <path d="M32,24.5 C30.3437417,24.5 28.7851636,24.8124969 27.3242188,25.4375 C25.8632739,26.0625031 24.5898492,26.9179633 23.5039062,28.0039062 C22.4179633,29.0898492 21.5625031,30.3632739 20.9375,31.8242188 C20.3124969,33.2851636 20,34.8437417 20,36.5 C20,38.1562583 20.3124969,39.7148364 20.9375,41.1757812 C21.5625031,42.6367261 22.4179633,43.9101508 23.5039062,44.9960938 C24.5898492,46.0820367 25.8632739,46.9374969 27.3242188,47.5625 C28.7851636,48.1875031 30.3437417,48.5 32,48.5 C33.6562583,48.5 35.2148364,48.1875031 36.6757812,47.5625 C38.1367261,46.9374969 39.4101508,46.0820367 40.4960938,44.9960938 C41.5820367,43.9101508 42.4374969,42.6367261 43.0625,41.1757812 C43.6875031,39.7148364 44,38.1562583 44,36.5 C44,34.8437417 43.6875031,33.2851636 43.0625,31.8242188 C42.4374969,30.3632739 41.5820367,29.0898492 40.4960938,28.0039062 C39.4101508,26.9179633 38.1367261,26.0625031 36.6757812,25.4375 C35.2148364,24.8124969 33.6562583,24.5 32,24.5 L32,24.5 Z M32,47.0234375 C30.5468677,47.0234375 29.1836001,46.7460965 27.9101562,46.1914062 C26.6367124,45.636716 25.5273485,44.8828173 24.5820312,43.9296875 C23.636714,42.9765577 22.8867215,41.8632876 22.3320312,40.5898438 C21.777341,39.3163999 21.5,37.9531323 21.5,36.5 C21.5,35.0468677 21.777341,33.6836001 22.3320312,32.4101562 C22.8867215,31.1367124 23.636714,30.0273485 24.5820312,29.0820312 C25.5273485,28.136714 26.6367124,27.3867215 27.9101562,26.8320312 C29.1836001,26.277341 30.5468677,26 32,26 C33.4531323,26 34.8163999,26.277341 36.0898438,26.8320312 C37.3632876,27.3867215 38.4726515,28.136714 39.4179688,29.0820312 C40.363286,30.0273485 41.1132785,31.1367124 41.6679688,32.4101562 C42.222659,33.6836001 42.5,35.0468677 42.5,36.5 C42.5,37.9531323 42.222659,39.3163999 41.6679688,40.5898438 C41.1132785,41.8632876 40.363286,42.9765577 39.4179688,43.9296875 C38.4726515,44.8828173 37.3632876,45.636716 36.0898438,46.1914062 C34.8163999,46.7460965 33.4531323,47.0234375 32,47.0234375 L32,47.0234375 Z M32.75,36.1953125 L32.75,29 C32.75,28.796874 32.675782,28.6210945 32.5273438,28.4726562 C32.3789055,28.324218 32.203126,28.25 32,28.25 C31.796874,28.25 31.6210945,28.324218 31.4726562,28.4726562 C31.324218,28.6210945 31.25,28.796874 31.25,29 L31.25,36.5 C31.25,36.6093755 31.2695311,36.710937 31.3085938,36.8046875 C31.3476564,36.898438 31.4062496,36.9765622 31.484375,37.0390625 L31.4960938,37.0507812 C31.5039063,37.0585938 31.5078125,37.0703124 31.5078125,37.0859375 L35.234375,40.7890625 C35.3750007,40.9453133 35.5507802,41.0234375 35.7617188,41.0234375 C35.9726573,41.0234375 36.1484368,40.9453133 36.2890625,40.7890625 C36.4296882,40.6484368 36.5,40.4726573 36.5,40.2617188 C36.5,40.0507802 36.4296882,39.8750007 36.2890625,39.734375 L32.75,36.1953125 L32.75,36.1953125 Z" id="clock"></path>
                </g>
            </g>
        </g>
    </g>
</svg>