<?xml version="1.0" encoding="UTF-8"?>
<svg width="24px" height="17px" viewBox="0 0 24 17" version="1.1" xmlns="http://www.w3.org/2000/svg" xmlns:xlink="http://www.w3.org/1999/xlink">
    <!-- Generator: Sketch 40.3 (33839) - http://www.bohemiancoding.com/sketch -->
    <title>credit-card-kw</title>
    <desc>Created with Sketch.</desc>
    <defs></defs>
    <g id="Long-Form" stroke="none" stroke-width="1" fill="none" fill-rule="evenodd">
        <g id="Desktop-HD" transform="translate(-750.000000, -4430.000000)" fill="#73D8C7">
            <g id="Keyword-Research-Tools" transform="translate(-10.000000, 3929.000000)">
                <g id="Four" transform="translate(740.000000, 473.000000)">
                    <path d="M41.75,28.625 L22.25,28.625 C21.6249969,28.625 21.0937522,28.8437478 20.65625,29.28125 C20.2187478,29.7187522 20,30.2499969 20,30.875 L20,42.125 C20,42.7500031 20.2187478,43.2812478 20.65625,43.71875 C21.0937522,44.1562522 21.6249969,44.375 22.25,44.375 L41.75,44.375 C42.3750031,44.375 42.9062478,44.1562522 43.34375,43.71875 C43.7812522,43.2812478 44,42.7500031 44,42.125 L44,30.875 C44,30.2499969 43.7812522,29.7187522 43.34375,29.28125 C42.9062478,28.8437478 42.3750031,28.625 41.75,28.625 L41.75,28.625 Z M22.25,30.125 L41.75,30.125 C41.953126,30.125 42.1289055,30.199218 42.2773438,30.3476562 C42.425782,30.4960945 42.5,30.671874 42.5,30.875 L42.5,32.375 L21.5,32.375 L21.5,30.875 C21.5,30.671874 21.574218,30.4960945 21.7226562,30.3476562 C21.8710945,30.199218 22.046874,30.125 22.25,30.125 L22.25,30.125 Z M41.75,42.875 L22.25,42.875 C22.046874,42.875 21.8710945,42.800782 21.7226562,42.6523438 C21.574218,42.5039055 21.5,42.328126 21.5,42.125 L21.5,35.375 L42.5,35.375 L42.5,42.125 C42.5,42.328126 42.425782,42.5039055 42.2773438,42.6523438 C42.1289055,42.800782 41.953126,42.875 41.75,42.875 L41.75,42.875 Z" id="credit-card"></path>
                </g>
            </g>
        </g>
    </g>
</svg>