<?xml version="1.0" encoding="UTF-8"?>
<svg width="26px" height="19px" viewBox="0 0 26 19" version="1.1" xmlns="http://www.w3.org/2000/svg" xmlns:xlink="http://www.w3.org/1999/xlink">
    <!-- Generator: Sketch 40.3 (33839) - http://www.bohemiancoding.com/sketch -->
    <title>glasses-ppc</title>
    <desc>Created with Sketch.</desc>
    <defs></defs>
    <g id="Long-Form" stroke="none" stroke-width="1" fill="none" fill-rule="evenodd">
        <g id="Desktop-HD" transform="translate(-159.000000, -2045.000000)" fill="#6EB5F3">
            <g id="PPC-Research" transform="translate(-20.000000, 1715.000000)">
                <g id="One" transform="translate(160.000000, 303.000000)">
                    <path d="M44.0234375,39.78125 C44.0234375,39.7031246 43.9570319,39.2617228 43.8242188,38.4570312 C43.6914056,37.6523397 43.5429696,36.7578174 43.3789063,35.7734375 C43.2148429,34.7890576 43.0546883,33.8437545 42.8984375,32.9375 C42.7421867,32.0312455 42.6406252,31.4375014 42.59375,31.15625 C42.59375,31.0937497 42.5898438,31.0351565 42.5820313,30.9804688 C42.5742187,30.925781 42.5625001,30.8671878 42.546875,30.8046875 C42.4687496,30.2265596 42.234377,29.5312541 41.84375,28.71875 C41.453123,27.9062459 40.3984461,27.5 38.6796875,27.5 C38.4609364,27.5 38.2812507,27.574218 38.140625,27.7226562 C37.9999993,27.8710945 37.9296875,28.046874 37.9296875,28.25 C37.9296875,28.453126 37.9999993,28.6289055 38.140625,28.7773438 C38.2812507,28.925782 38.4609364,29 38.6796875,29 C39.7421928,29 40.3867176,29.1914043 40.6132813,29.5742188 C40.8398449,29.9570332 40.9921871,30.4296847 41.0703125,30.9921875 C41.0703125,31.0546878 41.0742187,31.1210934 41.0820313,31.1914062 C41.0898438,31.2617191 41.1015624,31.3281247 41.1171875,31.390625 C41.1640627,31.6562513 41.2695304,32.2460892 41.4335938,33.1601562 C41.5976571,34.0742233 41.7656241,35.0546823 41.9375,36.1015625 C41.4999978,35.7734359 41.0117214,35.5117197 40.4726563,35.3164062 C39.9335911,35.1210928 39.3671905,35.0234375 38.7734375,35.0234375 C37.8203077,35.0234375 36.9414103,35.2617164 36.1367188,35.7382812 C35.3320272,36.2148461 34.6953148,36.8359337 34.2265625,37.6015625 C34.0078114,37.507812 33.7070332,37.4179692 33.3242188,37.3320312 C32.9414043,37.2460933 32.5000025,37.203125 32,37.203125 C31.4843724,37.203125 31.0429706,37.2460933 30.6757813,37.3320312 C30.3085919,37.4179692 30.0156261,37.507812 29.796875,37.6015625 C29.3281227,36.8359337 28.6992227,36.2148461 27.9101563,35.7382812 C27.1210898,35.2617164 26.2421923,35.0234375 25.2734375,35.0234375 C24.6484344,35.0234375 24.0546903,35.1289052 23.4921875,35.3398438 C22.9296847,35.5507823 22.4218773,35.8359357 21.96875,36.1953125 C22.1406259,35.1484323 22.3124991,34.1523485 22.484375,33.2070312 C22.6562509,32.261714 22.7656248,31.6562513 22.8125,31.390625 C22.8125,31.3281247 22.8203124,31.2617191 22.8359375,31.1914062 C22.8515626,31.1210934 22.859375,31.0546878 22.859375,30.9921875 C22.9375004,30.4296847 23.0898426,29.9570332 23.3164063,29.5742188 C23.5429699,29.1914043 24.1874947,29 25.25,29 C25.453126,29 25.6289055,28.925782 25.7773438,28.7773438 C25.925782,28.6289055 26,28.453126 26,28.25 C26,28.046874 25.925782,27.8710945 25.7773438,27.7226562 C25.6289055,27.574218 25.453126,27.5 25.25,27.5 C23.5312414,27.5 22.4726582,27.9062459 22.0742188,28.71875 C21.6757793,29.5312541 21.4453128,30.2265596 21.3828125,30.8046875 C21.3671874,30.8671878 21.3554688,30.925781 21.3476563,30.9804688 C21.3398437,31.0351565 21.3359375,31.0937497 21.3359375,31.15625 C21.2890623,31.4375014 21.191407,32.0273393 21.0429688,32.9257812 C20.8945305,33.8242232 20.7421883,34.7656201 20.5859375,35.75 C20.4296867,36.7343799 20.2890631,37.624996 20.1640625,38.421875 C20.0390619,39.218754 19.9765625,39.6562496 19.9765625,39.734375 C19.9609374,39.7656252 19.9570312,39.8007811 19.9648438,39.8398438 C19.9726563,39.8789064 19.9765625,39.9140623 19.9765625,39.9453125 L19.9765625,40.0976562 L19.9765625,40.2734375 C19.9765625,40.9921911 20.1171861,41.6679656 20.3984375,42.3007812 C20.6796889,42.9335969 21.0624976,43.4882789 21.546875,43.9648438 C22.0312524,44.4414086 22.5937468,44.8164049 23.234375,45.0898438 C23.8750032,45.3632826 24.5546839,45.5 25.2734375,45.5 C26.0078162,45.5 26.6914031,45.3632826 27.3242188,45.0898438 C27.9570344,44.8164049 28.5117164,44.4414086 28.9882813,43.9648438 C29.4648461,43.4882789 29.8398424,42.9335969 30.1132813,42.3007812 C30.3867201,41.6679656 30.5234375,40.9921911 30.5234375,40.2734375 C30.5234375,40.0546864 30.5078127,39.8398448 30.4765625,39.6289062 C30.4453123,39.4179677 30.4062502,39.2109385 30.359375,39.0078125 C30.5156258,38.9453122 30.7304674,38.8789066 31.0039063,38.8085938 C31.2773451,38.7382809 31.609373,38.703125 32,38.703125 C32.3750019,38.703125 32.7031236,38.7343747 32.984375,38.796875 C33.2656264,38.8593753 33.4843742,38.9218747 33.640625,38.984375 C33.5781247,39.187501 33.5351564,39.3945302 33.5117188,39.6054688 C33.4882811,39.8164073 33.4765625,40.0390613 33.4765625,40.2734375 C33.4765625,40.9921911 33.6171861,41.6679656 33.8984375,42.3007812 C34.1796889,42.9335969 34.5624976,43.4882789 35.046875,43.9648438 C35.5312524,44.4414086 36.0937468,44.8164049 36.734375,45.0898438 C37.3750032,45.3632826 38.0546839,45.5 38.7734375,45.5 C39.5078162,45.5 40.1914031,45.3632826 40.8242188,45.0898438 C41.4570344,44.8164049 42.0117164,44.4414086 42.4882813,43.9648438 C42.9648461,43.4882789 43.3398424,42.9335969 43.6132813,42.3007812 C43.8867201,41.6679656 44.0234375,40.9921911 44.0234375,40.2734375 C44.0234375,40.2265623 44.0195313,40.1835939 44.0117188,40.1445312 C44.0039062,40.1054686 44,40.0703127 44,40.0390625 C44.0156251,39.9921873 44.0273437,39.9492189 44.0351563,39.9101562 C44.0429688,39.8710936 44.0390626,39.8281252 44.0234375,39.78125 L44.0234375,39.78125 Z M25.2734375,44 C24.2421823,44 23.3515663,43.62891 22.6015625,42.8867188 C21.8515588,42.1445275 21.4765625,41.2734425 21.4765625,40.2734375 C21.4765625,39.2578074 21.8515588,38.37891 22.6015625,37.6367188 C23.3515663,36.8945275 24.2421823,36.5234375 25.2734375,36.5234375 C26.3046927,36.5234375 27.1874963,36.8906213 27.921875,37.625 C28.6562537,38.3593787 29.0234375,39.2421823 29.0234375,40.2734375 C29.0234375,41.3046927 28.6562537,42.1835901 27.921875,42.9101562 C27.1874963,43.6367224 26.3046927,44 25.2734375,44 L25.2734375,44 Z M38.7734375,44 C37.7421823,44 36.8515663,43.62891 36.1015625,42.8867188 C35.3515588,42.1445275 34.9765625,41.2734425 34.9765625,40.2734375 C34.9765625,39.2578074 35.3515588,38.37891 36.1015625,37.6367188 C36.8515663,36.8945275 37.7421823,36.5234375 38.7734375,36.5234375 C39.664067,36.5234375 40.4492154,36.8046847 41.1289063,37.3671875 C41.8085971,37.9296903 42.2421866,38.6249959 42.4296875,39.453125 C42.4296875,39.5312504 42.4335937,39.6054684 42.4414063,39.6757812 C42.4492188,39.7460941 42.453125,39.8124997 42.453125,39.875 C42.4687501,39.9062502 42.4804687,39.9374998 42.4882813,39.96875 C42.4960938,40.0000002 42.5,40.0312498 42.5,40.0625 C42.5,40.0937502 42.5039062,40.1249998 42.5117188,40.15625 C42.5195313,40.1875002 42.5234375,40.2265623 42.5234375,40.2734375 C42.5234375,41.3046927 42.1562537,42.1835901 41.421875,42.9101562 C40.6874963,43.6367224 39.8046927,44 38.7734375,44 L38.7734375,44 Z" id="glasses"></path>
                </g>
            </g>
        </g>
    </g>
</svg>