<?xml version="1.0" encoding="UTF-8"?>
<svg width="24px" height="25px" viewBox="0 0 24 25" version="1.1" xmlns="http://www.w3.org/2000/svg" xmlns:xlink="http://www.w3.org/1999/xlink">
    <!-- Generator: Sketch 40.3 (33839) - http://www.bohemiancoding.com/sketch -->
    <title>group-seo</title>
    <desc>Created with Sketch.</desc>
    <defs></defs>
    <g id="Long-Form" stroke="none" stroke-width="1" fill="none" fill-rule="evenodd">
        <g id="Desktop-HD" transform="translate(-750.000000, -3231.000000)" fill="#63C986">
            <g id="SEO-Research" transform="translate(-20.000000, 2742.000000)">
                <g id="Four" transform="translate(750.000000, 465.000000)">
                    <path d="M20.515625,31.578125 L31.6484375,37.6484375 C31.7109378,37.6640626 31.769531,37.6796874 31.8242188,37.6953125 C31.8789065,37.7109376 31.9374997,37.71875 32,37.71875 C32.0625003,37.71875 32.1249997,37.7148438 32.1875,37.7070312 C32.2500003,37.6992187 32.3046873,37.6796877 32.3515625,37.6484375 L43.625,31.578125 C43.7343755,31.5156247 43.8242184,31.4218756 43.8945312,31.296875 C43.9648441,31.1718744 44,31.0390632 44,30.8984375 C44,30.7578118 43.9648441,30.6289068 43.8945312,30.5117188 C43.8242184,30.3945307 43.7265631,30.3046878 43.6015625,30.2421875 L32.46875,24.59375 C32.3593745,24.5312497 32.2460943,24.5 32.1289062,24.5 C32.0117182,24.5 31.898438,24.5312497 31.7890625,24.59375 L20.5390625,30.2421875 C20.4140619,30.3046878 20.3125004,30.3945307 20.234375,30.5117188 C20.1562496,30.6289068 20.1171875,30.7578118 20.1171875,30.8984375 C20.1171875,31.0390632 20.1523434,31.1718744 20.2226562,31.296875 C20.2929691,31.4218756 20.3906244,31.5156247 20.515625,31.578125 L20.515625,31.578125 Z M32.1171875,26.09375 L41.6328125,30.9453125 L32,36.125 L22.484375,30.9453125 L32.1171875,26.09375 L32.1171875,26.09375 Z M43.4609375,35.75 L41.234375,34.625 L39.640625,35.4921875 L41.515625,36.453125 L31.8828125,41.6328125 L22.3671875,36.453125 L24.359375,35.4453125 L22.765625,34.578125 L20.3984375,35.75 C20.2734369,35.8125003 20.1757816,35.9023432 20.1054688,36.0195312 C20.0351559,36.1367193 20,36.2656243 20,36.40625 C20,36.5468757 20.0351559,36.6796869 20.1054688,36.8046875 C20.1757816,36.9296881 20.2656245,37.0234372 20.375,37.0859375 L31.5078125,43.15625 C31.5703128,43.1875002 31.6328122,43.2109374 31.6953125,43.2265625 C31.7578128,43.2421876 31.8203122,43.25 31.8828125,43.25 C31.9453128,43.25 32.003906,43.2421876 32.0585938,43.2265625 C32.1132815,43.2109374 32.1718747,43.1875002 32.234375,43.15625 L43.484375,37.0859375 C43.6093756,37.0234372 43.7070309,36.9296881 43.7773438,36.8046875 C43.8476566,36.6796869 43.8828125,36.5468757 43.8828125,36.40625 C43.8828125,36.2812494 43.8437504,36.1562506 43.765625,36.03125 C43.6874996,35.9062494 43.5859381,35.8125003 43.4609375,35.75 L43.4609375,35.75 Z M43.4609375,41 L41.3515625,39.96875 L39.7578125,40.8359375 L41.515625,41.703125 L31.8828125,46.8828125 L22.3671875,41.703125 L24.21875,40.859375 L22.625,39.9921875 L20.3984375,41 C20.2734369,41.0625003 20.1757816,41.1523432 20.1054688,41.2695312 C20.0351559,41.3867193 20,41.5156243 20,41.65625 C20,41.7968757 20.0351559,41.9296869 20.1054688,42.0546875 C20.1757816,42.1796881 20.2656245,42.2734372 20.375,42.3359375 L31.5078125,48.40625 C31.5703128,48.4375002 31.6328122,48.4609374 31.6953125,48.4765625 C31.7578128,48.4921876 31.8203122,48.5 31.8828125,48.5 C31.9453128,48.5 32.003906,48.4921876 32.0585938,48.4765625 C32.1132815,48.4609374 32.1718747,48.4375002 32.234375,48.40625 L43.484375,42.3359375 C43.6093756,42.2734372 43.7070309,42.1796881 43.7773438,42.0546875 C43.8476566,41.9296869 43.8828125,41.7968757 43.8828125,41.65625 C43.8828125,41.5312494 43.8437504,41.4062506 43.765625,41.28125 C43.6874996,41.1562494 43.5859381,41.0625003 43.4609375,41 L43.4609375,41 Z" id="group"></path>
                </g>
            </g>
        </g>
    </g>
</svg>