<?xml version="1.0" encoding="UTF-8"?>
<svg width="22px" height="25px" viewBox="0 0 22 25" version="1.1" xmlns="http://www.w3.org/2000/svg" xmlns:xlink="http://www.w3.org/1999/xlink">
    <!-- Generator: Sketch 40.3 (33839) - http://www.bohemiancoding.com/sketch -->
    <title>key-seo</title>
    <desc>Created with Sketch.</desc>
    <defs></defs>
    <g id="Long-Form" stroke="none" stroke-width="1" fill="none" fill-rule="evenodd">
        <g id="Desktop-HD" transform="translate(-161.000000, -3069.000000)" fill="#63C986">
            <g id="SEO-Research" transform="translate(-20.000000, 2742.000000)">
                <g id="One" transform="translate(160.000000, 303.000000)">
                    <path d="M35.375,24.5 C34.4374953,24.5 33.5585979,24.6757795 32.7382812,25.0273438 C31.9179646,25.378908 31.203128,25.8632782 30.59375,26.4804688 C29.984372,27.0976593 29.503908,27.8164021 29.1523438,28.6367188 C28.8007795,29.4570354 28.625,30.3281204 28.625,31.25 C28.625,32.0937542 28.7656236,32.8906212 29.046875,33.640625 C29.3281264,34.3906288 29.7265599,35.0546846 30.2421875,35.6328125 C30.132812,35.6328125 30.0273443,35.6523436 29.9257812,35.6914062 C29.8242182,35.7304689 29.7343754,35.7890621 29.65625,35.8671875 L22.109375,43.4609375 C21.9531242,43.6015632 21.875,43.7773427 21.875,43.9882812 C21.875,44.1992198 21.9531242,44.3749993 22.109375,44.515625 L22.109375,44.5273438 L22.109375,44.5390625 L22.1210938,44.5390625 L22.1328125,44.5390625 L25.8125,48.2890625 C25.9531257,48.4296882 26.124999,48.5 26.328125,48.5 C26.531251,48.5 26.7109367,48.4296882 26.8671875,48.2890625 C27.0078132,48.1484368 27.078125,47.9726573 27.078125,47.7617188 C27.078125,47.5507802 27.0078132,47.3750007 26.8671875,47.234375 L23.6796875,44 L25.625,42.0546875 L28.8125,45.2890625 C28.9531257,45.4296882 29.124999,45.5 29.328125,45.5 C29.531251,45.5 29.7109367,45.4296882 29.8671875,45.2890625 C30.0078132,45.1484368 30.078125,44.9726573 30.078125,44.7617188 C30.078125,44.5507802 30.0078132,44.3750007 29.8671875,44.234375 L26.6796875,40.9765625 L30.7109375,36.921875 C30.7890629,36.8437496 30.8476561,36.7539068 30.8867188,36.6523438 C30.9257814,36.5507807 30.9453125,36.4531255 30.9453125,36.359375 C31.5390655,36.8750026 32.2109337,37.2812485 32.9609375,37.578125 C33.7109413,37.8750015 34.5156207,38.0234375 35.375,38.0234375 C36.2968796,38.0234375 37.1679646,37.847658 37.9882812,37.4960938 C38.8085979,37.1445295 39.5234345,36.6601593 40.1328125,36.0429688 C40.7421905,35.4257782 41.2265607,34.7070354 41.5859375,33.8867188 C41.9453143,33.0664021 42.125,32.1875047 42.125,31.25 C42.125,30.3281204 41.9453143,29.4570354 41.5859375,28.6367188 C41.2265607,27.8164021 40.7421905,27.0976593 40.1328125,26.4804688 C39.5234345,25.8632782 38.8085979,25.378908 37.9882812,25.0273438 C37.1679646,24.6757795 36.2968796,24.5 35.375,24.5 L35.375,24.5 Z M35.375,36.5 C34.6406213,36.5 33.9570344,36.3632826 33.3242188,36.0898438 C32.6914031,35.8164049 32.1367211,35.4414086 31.6601562,34.9648438 C31.1835914,34.4882789 30.8085951,33.9296907 30.5351562,33.2890625 C30.2617174,32.6484343 30.125,31.9687536 30.125,31.25 C30.125,30.5312464 30.2617174,29.8515657 30.5351562,29.2109375 C30.8085951,28.5703093 31.1835914,28.0117211 31.6601562,27.5351562 C32.1367211,27.0585914 32.6914031,26.6835951 33.3242188,26.4101562 C33.9570344,26.1367174 34.6406213,26 35.375,26 C36.0937536,26 36.7695281,26.1367174 37.4023438,26.4101562 C38.0351594,26.6835951 38.5898414,27.0585914 39.0664062,27.5351562 C39.5429711,28.0117211 39.9218736,28.5703093 40.203125,29.2109375 C40.4843764,29.8515657 40.625,30.5312464 40.625,31.25 C40.625,31.9687536 40.4843764,32.6484343 40.203125,33.2890625 C39.9218736,33.9296907 39.5429711,34.4882789 39.0664062,34.9648438 C38.5898414,35.4414086 38.0351594,35.8164049 37.4023438,36.0898438 C36.7695281,36.3632826 36.0937536,36.5 35.375,36.5 L35.375,36.5 Z" id="key"></path>
                </g>
            </g>
        </g>
    </g>
</svg>