<?xml version="1.0" encoding="UTF-8"?>
<svg width="16px" height="25px" viewBox="0 0 16 25" version="1.1" xmlns="http://www.w3.org/2000/svg" xmlns:xlink="http://www.w3.org/1999/xlink">
    <!-- Generator: Sketch 40.3 (33839) - http://www.bohemiancoding.com/sketch -->
    <title>lab-kw</title>
    <desc>Created with Sketch.</desc>
    <defs></defs>
    <g id="Long-Form" stroke="none" stroke-width="1" fill="none" fill-rule="evenodd">
        <g id="Desktop-HD" transform="translate(-754.000000, -4596.000000)" fill="#73D8C7">
            <g id="Keyword-Research-Tools" transform="translate(-10.000000, 3929.000000)">
                <g id="Six" transform="translate(740.000000, 643.000000)">
                    <path d="M38.984375,47.2578125 L35,42.5234375 L35,34.25 L35.4921875,34.25 C35.7109386,34.25 35.8906243,34.175782 36.03125,34.0273438 C36.1718757,33.8789055 36.2421875,33.703126 36.2421875,33.5 C36.2421875,33.2812489 36.1718757,33.1015632 36.03125,32.9609375 C35.8906243,32.8203118 35.7109386,32.75 35.4921875,32.75 L34.25,32.75 C34.046874,32.75 33.8710945,32.8203118 33.7226562,32.9609375 C33.574218,33.1015632 33.5,33.2812489 33.5,33.5 L33.5,42.8046875 C33.5,42.898438 33.5156248,42.9882808 33.546875,43.0742188 C33.5781252,43.1601567 33.6249997,43.2421871 33.6875,43.3203125 L36.7578125,47 L27.2421875,47 L30.3125,43.3203125 C30.3750003,43.2421871 30.4218748,43.1601567 30.453125,43.0742188 C30.4843752,42.9882808 30.5,42.898438 30.5,42.8046875 L30.5,33.5 C30.5,33.2812489 30.425782,33.1015632 30.2773437,32.9609375 C30.1289055,32.8203118 29.953126,32.75 29.75,32.75 L28.5078125,32.75 C28.2890614,32.75 28.1093757,32.8203118 27.96875,32.9609375 C27.8281243,33.1015632 27.7578125,33.2812489 27.7578125,33.5 C27.7578125,33.703126 27.8281243,33.8789055 27.96875,34.0273438 C28.1093757,34.175782 28.2890614,34.25 28.5078125,34.25 L29,34.25 L29,42.5234375 L25.015625,47.2578125 C24.9062495,47.367188 24.8398439,47.4921868 24.8164062,47.6328125 C24.7929686,47.7734382 24.8124997,47.9140618 24.875,48.0546875 C24.9375003,48.1953132 25.0312494,48.3046871 25.15625,48.3828125 C25.2812506,48.4609379 25.4140618,48.5 25.5546875,48.5 L38.4453125,48.5 C38.5859382,48.5 38.7187494,48.4609379 38.84375,48.3828125 C38.9687506,48.3046871 39.0624997,48.1953132 39.125,48.0546875 C39.1875003,47.9140618 39.2070314,47.7734382 39.1835937,47.6328125 C39.1601561,47.4921868 39.0937505,47.367188 38.984375,47.2578125 L38.984375,47.2578125 Z M31.25,32 C31.656252,32 32.007811,31.851564 32.3046875,31.5546875 C32.601564,31.257811 32.75,30.906252 32.75,30.5 C32.75,30.0781229 32.601564,29.7226577 32.3046875,29.4335938 C32.007811,29.1445298 31.656252,29 31.25,29 C30.843748,29 30.492189,29.1445298 30.1953125,29.4335938 C29.898436,29.7226577 29.75,30.0781229 29.75,30.5 C29.75,30.906252 29.898436,31.257811 30.1953125,31.5546875 C30.492189,31.851564 30.843748,32 31.25,32 L31.25,32 Z M36.125,29.7734375 C36.8593787,29.7734375 37.4843724,29.5156276 38,29 C38.5156276,28.4843724 38.7734375,27.8593787 38.7734375,27.125 C38.7734375,26.4062464 38.5156276,25.7890651 38,25.2734375 C37.4843724,24.7578099 36.8593787,24.5 36.125,24.5 C35.4062464,24.5 34.7890651,24.7578099 34.2734375,25.2734375 C33.7578099,25.7890651 33.5,26.4062464 33.5,27.125 C33.5,27.8593787 33.7578099,28.4843724 34.2734375,29 C34.7890651,29.5156276 35.4062464,29.7734375 36.125,29.7734375 L36.125,29.7734375 Z M36.125,26 C36.4375016,26 36.7031239,26.1093739 36.921875,26.328125 C37.1406261,26.5468761 37.25,26.8124984 37.25,27.125 C37.25,27.4375016 37.1406261,27.7031239 36.921875,27.921875 C36.7031239,28.1406261 36.4375016,28.25 36.125,28.25 C35.8124984,28.25 35.5468761,28.1406261 35.328125,27.921875 C35.1093739,27.7031239 35,27.4375016 35,27.125 C35,26.8124984 35.1093739,26.5468761 35.328125,26.328125 C35.5468761,26.1093739 35.8124984,26 36.125,26 L36.125,26 Z" id="lab"></path>
                </g>
            </g>
        </g>
    </g>
</svg>