<?xml version="1.0" encoding="UTF-8"?>
<svg width="24px" height="21px" viewBox="0 0 24 21" version="1.1" xmlns="http://www.w3.org/2000/svg" xmlns:xlink="http://www.w3.org/1999/xlink">
    <!-- Generator: Sketch 40.3 (33839) - http://www.bohemiancoding.com/sketch -->
    <title>-leads</title>
    <desc>Created with Sketch.</desc>
    <defs></defs>
    <g id="Long-Form" stroke="none" stroke-width="1" fill="none" fill-rule="evenodd">
        <g id="Desktop-HD" transform="translate(-160.000000, -5313.000000)" fill="#999999">
            <g id="Domain-Leads-and-Top-Lists" transform="translate(0.000000, 4984.000000)">
                <g id="Group" transform="translate(140.000000, 303.000000)">
                    <path d="M42.5,26.75 L21.5,26.75 C21.093748,26.75 20.742189,26.8945298 20.4453125,27.1835938 C20.148436,27.4726577 20,27.8281229 20,28.25 L20,41 C20,41.406252 20.148436,41.757811 20.4453125,42.0546875 C20.742189,42.351564 21.093748,42.5 21.5,42.5 L31.25,42.5 L31.25,44.75 L27.5,44.75 C27.296874,44.75 27.1210945,44.824218 26.9726562,44.9726562 C26.824218,45.1210945 26.75,45.296874 26.75,45.5 C26.75,45.703126 26.824218,45.8789055 26.9726562,46.0273438 C27.1210945,46.175782 27.296874,46.25 27.5,46.25 L36.5,46.25 C36.703126,46.25 36.8789055,46.175782 37.0273438,46.0273438 C37.175782,45.8789055 37.25,45.703126 37.25,45.5 C37.25,45.296874 37.175782,45.1210945 37.0273438,44.9726562 C36.8789055,44.824218 36.703126,44.75 36.5,44.75 L32.75,44.75 L32.75,42.5 L42.5,42.5 C42.906252,42.5 43.257811,42.351564 43.5546875,42.0546875 C43.851564,41.757811 44,41.406252 44,41 L44,28.25 C44,27.8281229 43.851564,27.4726577 43.5546875,27.1835938 C43.257811,26.8945298 42.906252,26.75 42.5,26.75 L42.5,26.75 Z M42.5,41 L21.5,41 L21.5,28.25 L42.5,28.25 L42.5,41 L42.5,41 Z" id=""></path>
                </g>
            </g>
        </g>
    </g>
</svg>