<?xml version="1.0" encoding="UTF-8"?>
<svg width="24px" height="25px" viewBox="0 0 24 25" version="1.1" xmlns="http://www.w3.org/2000/svg" xmlns:xlink="http://www.w3.org/1999/xlink">
    <!-- Generator: Sketch 40.3 (33839) - http://www.bohemiancoding.com/sketch -->
    <title>negative-ppc</title>
    <desc>Created with Sketch.</desc>
    <defs></defs>
    <g id="Long-Form" stroke="none" stroke-width="1" fill="none" fill-rule="evenodd">
        <g id="Desktop-HD" transform="translate(-162.000000, -2528.000000)" fill="#6EB5F3">
            <g id="PPC-Research" transform="translate(-20.000000, 1715.000000)">
                <g id="Seven" transform="translate(162.000000, 789.000000)">
                    <path d="M32,24.5 C30.3437417,24.5 28.7851636,24.8124969 27.3242188,25.4375 C25.8632739,26.0625031 24.5898492,26.9179633 23.5039062,28.0039062 C22.4179633,29.0898492 21.5625031,30.3632739 20.9375,31.8242188 C20.3124969,33.2851636 20,34.8437417 20,36.5 C20,38.1562583 20.3124969,39.7148364 20.9375,41.1757812 C21.5625031,42.6367261 22.4179633,43.9101508 23.5039062,44.9960938 C24.5898492,46.0820367 25.8632739,46.9374969 27.3242188,47.5625 C28.7851636,48.1875031 30.3437417,48.5 32,48.5 C33.6562583,48.5 35.2148364,48.1875031 36.6757812,47.5625 C38.1367261,46.9374969 39.4101508,46.0820367 40.4960938,44.9960938 C41.5820367,43.9101508 42.4374969,42.6367261 43.0625,41.1757812 C43.6875031,39.7148364 44,38.1562583 44,36.5 C44,34.8437417 43.6875031,33.2851636 43.0625,31.8242188 C42.4374969,30.3632739 41.5820367,29.0898492 40.4960938,28.0039062 C39.4101508,26.9179633 38.1367261,26.0625031 36.6757812,25.4375 C35.2148364,24.8124969 33.6562583,24.5 32,24.5 L32,24.5 Z M21.5,36.5 C21.5,35.8437467 21.5585932,35.2031281 21.6757812,34.578125 C21.7929693,33.9531219 21.9648426,33.3476592 22.1914062,32.7617188 C22.4179699,32.1757783 22.6874984,31.6210964 23,31.0976562 C23.3125016,30.5742161 23.671873,30.0781273 24.078125,29.609375 L38.890625,44.421875 C38.4218727,44.828127 37.9257839,45.1914046 37.4023438,45.5117188 C36.8789036,45.8320329 36.3242217,46.1054676 35.7382812,46.3320312 C35.1523408,46.5585949 34.5468781,46.7304682 33.921875,46.8476562 C33.2968719,46.9648443 32.6562533,47.0234375 32,47.0234375 C30.5468677,47.0234375 29.1836001,46.7460965 27.9101562,46.1914062 C26.6367124,45.636716 25.5273485,44.8828173 24.5820312,43.9296875 C23.636714,42.9765577 22.8867215,41.8632876 22.3320312,40.5898438 C21.777341,39.3163999 21.5,37.9531323 21.5,36.5 L21.5,36.5 Z M39.9453125,43.3671875 L25.1328125,28.5546875 C25.6015648,28.1640605 26.0976536,27.8085954 26.6210938,27.4882812 C27.1445339,27.1679671 27.6953096,26.8984386 28.2734375,26.6796875 C28.8515654,26.4609364 29.4531219,26.2929693 30.078125,26.1757812 C30.7031281,26.0585932 31.3437467,26 32,26 C33.4531323,26 34.8163999,26.277341 36.0898438,26.8320312 C37.3632876,27.3867215 38.4726515,28.136714 39.4179688,29.0820312 C40.363286,30.0273485 41.1132785,31.1367124 41.6679688,32.4101562 C42.222659,33.6836001 42.5,35.0468677 42.5,36.5 C42.5,37.1562533 42.4414068,37.7968719 42.3242188,38.421875 C42.2070307,39.0468781 42.0390636,39.6484346 41.8203125,40.2265625 C41.6015614,40.8046904 41.3320329,41.3554661 41.0117188,41.8789062 C40.6914046,42.4023464 40.3359395,42.8984352 39.9453125,43.3671875 L39.9453125,43.3671875 Z" id="negative"></path>
                </g>
            </g>
        </g>
    </g>
</svg>