<?xml version="1.0" encoding="UTF-8"?>
<svg width="20px" height="21px" viewBox="0 0 20 21" version="1.1" xmlns="http://www.w3.org/2000/svg" xmlns:xlink="http://www.w3.org/1999/xlink">
    <!-- Generator: Sketch 40.3 (33839) - http://www.bohemiancoding.com/sketch -->
    <title>report-seo</title>
    <desc>Created with Sketch.</desc>
    <defs></defs>
    <g id="Long-Form" stroke="none" stroke-width="1" fill="none" fill-rule="evenodd">
        <g id="Desktop-HD" transform="translate(-750.000000, -3397.000000)" fill="#63C986">
            <g id="SEO-Research" transform="translate(-20.000000, 2742.000000)">
                <g id="Six" transform="translate(750.000000, 631.000000)">
                    <path d="M38.59375,24.2890625 L30.3320312,26.515625 C30.2278641,26.5416668 30.0813812,26.5546875 29.8925781,26.5546875 C29.7037751,26.5546875 29.5572922,26.5416668 29.453125,26.515625 L21.40625,24.2890625 C21.0416648,24.1848953 20.7161473,24.2434885 20.4296875,24.4648437 C20.1432277,24.686199 20,24.9791648 20,25.34375 L20,40.5390625 C20,40.8515641 20.1041656,41.1412747 20.3125,41.4082031 C20.5208344,41.6751315 20.7747381,41.8541662 21.0742188,41.9453125 L29.1210938,44.171875 C29.2252609,44.1979168 29.3457024,44.220703 29.4824219,44.2402344 C29.6191413,44.2597657 29.7591139,44.2695312 29.9023438,44.2695312 C30.0065109,44.2695312 30.1269524,44.2630209 30.2636719,44.25 C30.4003913,44.2369791 30.5338535,44.2109377 30.6640625,44.171875 L38.9257812,41.9257812 C39.2252619,41.8476559 39.4791656,41.6751315 39.6875,41.4082031 C39.8958344,41.1412747 40,40.8515641 40,40.5390625 L40,25.34375 C40,24.9791648 39.8567723,24.686199 39.5703125,24.4648437 C39.2838527,24.2434885 38.9583352,24.1848953 38.59375,24.2890625 L38.59375,24.2890625 Z M29.375,42.9414062 L21.3867188,40.734375 C21.360677,40.7213541 21.3313804,40.6953127 21.2988281,40.65625 C21.2662759,40.6171873 21.25,40.5781252 21.25,40.5390625 L21.25,25.5390625 L29.1210938,27.7265625 C29.1601564,27.7265625 29.2024737,27.7330729 29.2480469,27.7460937 C29.29362,27.7591146 29.3359373,27.765625 29.375,27.765625 L29.375,42.9414062 L29.375,42.9414062 Z M38.75,40.5390625 C38.75,40.5781252 38.7304689,40.6171873 38.6914062,40.65625 C38.6523436,40.6953127 38.6197918,40.7213541 38.59375,40.734375 L30.625,42.8828125 L30.625,27.7265625 L30.6347656,27.7265625 L30.6640625,27.7265625 L38.75,25.5390625 L38.75,40.5390625 L38.75,40.5390625 Z M32.5390625,31.3984375 L32.6269531,31.3984375 C32.6595054,31.3984375 32.688802,31.3919271 32.7148438,31.3789062 L37.0898438,30.1484375 C37.2460945,30.0963539 37.366536,29.9954435 37.4511719,29.8457031 C37.5358077,29.6959628 37.5585939,29.5429695 37.5195312,29.3867187 C37.4674477,29.2174471 37.3665372,29.0904952 37.2167969,29.0058594 C37.0670565,28.9212235 36.9075529,28.8984373 36.7382812,28.9375 L32.3632812,30.1679687 C32.2070305,30.2200523 32.086589,30.3209628 32.0019531,30.4707031 C31.9173173,30.6204435 31.8945311,30.7799471 31.9335938,30.9492187 C31.9726564,31.0924486 32.0507807,31.2031246 32.1679688,31.28125 C32.2851568,31.3593754 32.4088535,31.3984375 32.5390625,31.3984375 L32.5390625,31.3984375 Z M32.5390625,35.1484375 L32.6269531,35.1484375 C32.6595054,35.1484375 32.688802,35.1419271 32.7148438,35.1289062 L37.0898438,33.8984375 C37.2460945,33.8463539 37.366536,33.7454435 37.4511719,33.5957031 C37.5358077,33.4459628 37.5585939,33.2929695 37.5195312,33.1367187 C37.4674477,32.9674471 37.3665372,32.8404952 37.2167969,32.7558594 C37.0670565,32.6712235 36.9075529,32.6484373 36.7382812,32.6875 L32.3632812,33.9179687 C32.2070305,33.9700523 32.086589,34.0709628 32.0019531,34.2207031 C31.9173173,34.3704435 31.8945311,34.5299471 31.9335938,34.6992187 C31.9726564,34.8424486 32.0507807,34.9531246 32.1679688,35.03125 C32.2851568,35.1093754 32.4088535,35.1484375 32.5390625,35.1484375 L32.5390625,35.1484375 Z M32.5390625,38.8984375 L32.6269531,38.8984375 C32.6595054,38.8984375 32.688802,38.8919271 32.7148438,38.8789062 L37.0898438,37.6484375 C37.2460945,37.5963539 37.366536,37.4954435 37.4511719,37.3457031 C37.5358077,37.1959628 37.5585939,37.0429695 37.5195312,36.8867187 C37.4674477,36.7174471 37.3665372,36.5904952 37.2167969,36.5058594 C37.0670565,36.4212235 36.9075529,36.3984373 36.7382812,36.4375 L32.3632812,37.6679687 C32.2070305,37.7200523 32.086589,37.8209628 32.0019531,37.9707031 C31.9173173,38.1204435 31.8945311,38.2799471 31.9335938,38.4492187 C31.9726564,38.5924486 32.0507807,38.7031246 32.1679688,38.78125 C32.2851568,38.8593754 32.4088535,38.8984375 32.5390625,38.8984375 L32.5390625,38.8984375 Z M27.7148438,30.1679687 L23.3398438,28.9375 C23.1705721,28.8984373 23.0110685,28.9212235 22.8613281,29.0058594 C22.7115878,29.0904952 22.6106773,29.2174471 22.5585938,29.3867187 C22.5195311,29.5429695 22.5423173,29.6959628 22.6269531,29.8457031 C22.711589,29.9954435 22.8320305,30.0963539 22.9882812,30.1484375 L27.3632812,31.3789062 C27.389323,31.3919271 27.4186196,31.3984375 27.4511719,31.3984375 L27.5390625,31.3984375 C27.6692715,31.3984375 27.7929682,31.3593754 27.9101562,31.28125 C28.0273443,31.2031246 28.1054686,31.0924486 28.1445312,30.9492187 C28.1835939,30.7799471 28.1608077,30.6204435 28.0761719,30.4707031 C27.991536,30.3209628 27.8710945,30.2200523 27.7148438,30.1679687 L27.7148438,30.1679687 Z M27.7148438,33.9179687 L23.3398438,32.6875 C23.1705721,32.6484373 23.0110685,32.6712235 22.8613281,32.7558594 C22.7115878,32.8404952 22.6106773,32.9674471 22.5585938,33.1367187 C22.5195311,33.2929695 22.5423173,33.4459628 22.6269531,33.5957031 C22.711589,33.7454435 22.8320305,33.8463539 22.9882812,33.8984375 L27.3632812,35.1289062 C27.389323,35.1419271 27.4186196,35.1484375 27.4511719,35.1484375 L27.5390625,35.1484375 C27.6692715,35.1484375 27.7929682,35.1093754 27.9101562,35.03125 C28.0273443,34.9531246 28.1054686,34.8424486 28.1445312,34.6992187 C28.1835939,34.5299471 28.1608077,34.3704435 28.0761719,34.2207031 C27.991536,34.0709628 27.8710945,33.9700523 27.7148438,33.9179687 L27.7148438,33.9179687 Z M27.7148438,37.6679687 L23.3398438,36.4375 C23.1705721,36.3984373 23.0110685,36.4212235 22.8613281,36.5058594 C22.7115878,36.5904952 22.6106773,36.7174471 22.5585938,36.8867187 C22.5195311,37.0429695 22.5423173,37.1959628 22.6269531,37.3457031 C22.711589,37.4954435 22.8320305,37.5963539 22.9882812,37.6484375 L27.3632812,38.8789062 C27.389323,38.8919271 27.4186196,38.8984375 27.4511719,38.8984375 L27.5390625,38.8984375 C27.6692715,38.8984375 27.7929682,38.8593754 27.9101562,38.78125 C28.0273443,38.7031246 28.1054686,38.5924486 28.1445312,38.4492187 C28.1835939,38.2799471 28.1608077,38.1204435 28.0761719,37.9707031 C27.991536,37.8209628 27.8710945,37.7200523 27.7148438,37.6679687 L27.7148438,37.6679687 Z" id="report"></path>
                </g>
            </g>
        </g>
    </g>
</svg>