<?xml version="1.0" encoding="UTF-8"?>
<svg width="20px" height="25px" viewBox="0 0 20 25" version="1.1" xmlns="http://www.w3.org/2000/svg" xmlns:xlink="http://www.w3.org/1999/xlink">
    <!-- Generator: Sketch 40.3 (33839) - http://www.bohemiancoding.com/sketch -->
    <title>shield-ppc</title>
    <desc>Created with Sketch.</desc>
    <defs></defs>
    <g id="Long-Form" stroke="none" stroke-width="1" fill="none" fill-rule="evenodd">
        <g id="Desktop-HD" transform="translate(-752.000000, -2038.000000)" fill="#6EB5F3">
            <g id="PPC-Research" transform="translate(-20.000000, 1715.000000)">
                <g id="Two" transform="translate(750.000000, 303.000000)">
                    <path d="M41.28125,23.875 C41.1406243,23.7499994 40.9804696,23.6523441 40.8007812,23.5820312 C40.6210929,23.5117184 40.4375009,23.4765625 40.25,23.4765625 L40.203125,23.4765625 L40.15625,23.4765625 C40.1406249,23.4765625 40.0781255,23.4804687 39.96875,23.4882812 C39.8593745,23.4960938 39.7109384,23.5 39.5234375,23.5 C39.2109359,23.5 38.7773465,23.4804689 38.2226562,23.4414062 C37.667966,23.4023436 37.1015654,23.3125007 36.5234375,23.171875 C35.7734338,22.9843741 35.0273475,22.5781281 34.2851562,21.953125 C33.542965,21.3281219 33.0468762,20.9375008 32.796875,20.78125 C32.6718744,20.6874995 32.5390632,20.6210939 32.3984375,20.5820312 C32.2578118,20.5429686 32.1171882,20.5234375 31.9765625,20.5234375 C31.8203117,20.5234375 31.6718757,20.5429686 31.53125,20.5820312 C31.3906243,20.6210939 31.2578131,20.6874995 31.1328125,20.78125 C31.1015623,20.7968751 30.7109413,21.1445279 29.9609375,21.8242188 C29.2109338,22.5039096 28.3906295,22.9531239 27.5,23.171875 C26.9218721,23.3125007 26.3515653,23.4023436 25.7890625,23.4414062 C25.2265597,23.4804689 24.7890641,23.5 24.4765625,23.5 C24.2890616,23.5 24.1406255,23.4960938 24.03125,23.4882812 C23.9218745,23.4804687 23.8593751,23.4765625 23.84375,23.4765625 L23.796875,23.4765625 L23.75,23.4765625 C23.5624991,23.4765625 23.3789071,23.5117184 23.1992188,23.5820312 C23.0195304,23.6523441 22.8593757,23.7578118 22.71875,23.8984375 C22.5624992,24.0390632 22.4453129,24.2031241 22.3671875,24.390625 C22.2890621,24.5781259 22.25,24.7734365 22.25,24.9765625 L22.25,28.7265625 C22.25,32.1953298 22.7226515,34.9609272 23.6679688,37.0234375 C24.613286,39.0859478 25.6640567,40.664057 26.8203125,41.7578125 C27.9765683,42.851568 29.0546825,43.5703108 30.0546875,43.9140625 C31.0546925,44.2578142 31.601562,44.4374999 31.6953125,44.453125 C31.7421877,44.4687501 31.7890623,44.4765625 31.8359375,44.4765625 L31.9765625,44.4765625 L32.09375,44.4765625 C32.1406252,44.4765625 32.1874998,44.4687501 32.234375,44.453125 C32.3281255,44.4374999 32.8789012,44.2578142 33.8867188,43.9140625 C34.8945363,43.5703108 35.9804629,42.851568 37.1445312,41.7578125 C38.3085996,40.664057 39.3671827,39.0859478 40.3203125,37.0234375 C41.2734423,34.9609272 41.75,32.1953298 41.75,28.7265625 L41.75,24.9765625 C41.75,24.7734365 41.7109379,24.5781259 41.6328125,24.390625 C41.5546871,24.2031241 41.4375008,24.0312508 41.28125,23.875 L41.28125,23.875 Z M40.25,28.7265625 C40.25,31.9297035 39.8203168,34.4726468 38.9609375,36.3554688 C38.1015582,38.2382907 37.1523489,39.6679639 36.1132812,40.6445312 C35.0742136,41.6210986 34.1250043,42.2539048 33.265625,42.5429688 L31.9765625,42.9765625 C31.9765625,42.9765625 31.5468793,42.8320327 30.6875,42.5429688 C29.8281207,42.2539048 28.8828177,41.6210986 27.8515625,40.6445312 C26.8203073,39.6679639 25.8789105,38.2382907 25.0273438,36.3554688 C24.175777,34.4726468 23.75,31.9297035 23.75,28.7265625 L23.75,25.6328125 L23.75,24.9765625 C23.75,24.9765625 23.8164056,24.9804687 23.9492188,24.9882812 C24.0820319,24.9960938 24.2578114,25 24.4765625,25 C24.8828145,25 25.390622,24.9765627 26,24.9296875 C26.609378,24.8828123 27.2343718,24.7812508 27.875,24.625 C28.9062552,24.3749987 29.847652,23.87891 30.6992188,23.1367188 C31.5507855,22.3945275 31.9765625,22.0234375 31.9765625,22.0234375 C31.9765625,22.0234375 32.4140581,22.3945275 33.2890625,23.1367188 C34.1640669,23.87891 35.1171823,24.3749987 36.1484375,24.625 C36.7890657,24.7812508 37.4101532,24.8828123 38.0117188,24.9296875 C38.6132843,24.9765627 39.1171855,25 39.5234375,25 C39.7421886,25 39.9179681,24.9960938 40.0507812,24.9882812 C40.1835944,24.9804687 40.25,24.9765625 40.25,24.9765625 L40.25,25.6328125 L40.25,28.7265625 L40.25,28.7265625 Z M35.1875,28.609375 C35.0312492,28.4687493 34.8515635,28.3984375 34.6484375,28.3984375 C34.4453115,28.3984375 34.2656258,28.4687493 34.109375,28.609375 L32,30.7421875 L29.8671875,28.609375 C29.7265618,28.4687493 29.5507823,28.3984375 29.3398438,28.3984375 C29.1289052,28.3984375 28.9531257,28.4687493 28.8125,28.609375 C28.6718743,28.7656258 28.6015625,28.9453115 28.6015625,29.1484375 C28.6015625,29.3515635 28.6718743,29.5234368 28.8125,29.6640625 L30.9453125,31.796875 L28.8125,33.9296875 C28.6718743,34.0703132 28.6015625,34.2421865 28.6015625,34.4453125 C28.6015625,34.6484385 28.6718743,34.8281242 28.8125,34.984375 C28.9531257,35.1250007 29.1289052,35.1953125 29.3398438,35.1953125 C29.5507823,35.1953125 29.7265618,35.1250007 29.8671875,34.984375 L32,32.8515625 L34.109375,34.984375 C34.2656258,35.1250007 34.4453115,35.1953125 34.6484375,35.1953125 C34.8515635,35.1953125 35.0312492,35.1250007 35.1875,34.984375 C35.3281257,34.8281242 35.3984375,34.6484385 35.3984375,34.4453125 C35.3984375,34.2421865 35.3281257,34.0703132 35.1875,33.9296875 L33.0546875,31.796875 L35.1875,29.6640625 C35.3281257,29.5234368 35.3984375,29.3515635 35.3984375,29.1484375 C35.3984375,28.9453115 35.3281257,28.7656258 35.1875,28.609375 L35.1875,28.609375 Z" id="shield"></path>
                </g>
            </g>
        </g>
    </g>
</svg>