<?xml version="1.0" encoding="UTF-8"?>
<svg width="24px" height="25px" viewBox="0 0 24 25" version="1.1" xmlns="http://www.w3.org/2000/svg" xmlns:xlink="http://www.w3.org/1999/xlink">
    <!-- Generator: Sketch 40.3 (33839) - http://www.bohemiancoding.com/sketch -->
    <title>street-sign-seo</title>
    <desc>Created with Sketch.</desc>
    <defs></defs>
    <g id="Long-Form" stroke="none" stroke-width="1" fill="none" fill-rule="evenodd">
        <g id="Desktop-HD" transform="translate(-750.000000, -3069.000000)" fill="#63C986">
            <g id="SEO-Research" transform="translate(-20.000000, 2742.000000)">
                <g id="Two" transform="translate(750.000000, 303.000000)">
                    <path d="M43.8359375,28.859375 L41.4921875,26.2578125 C41.4296872,26.1796871 41.3476568,26.1171877 41.2460938,26.0703125 C41.1445307,26.0234373 41.039063,26 40.9296875,26 L32.7265625,26 L32.7265625,25.203125 C32.7265625,25.0156241 32.6523445,24.8515632 32.5039062,24.7109375 C32.355468,24.5703118 32.1796885,24.5 31.9765625,24.5 C31.7734365,24.5 31.597657,24.5703118 31.4492188,24.7109375 C31.3007805,24.8515632 31.2265625,25.0156241 31.2265625,25.203125 L31.2265625,26 L25.2265625,26 C25.0234365,26 24.847657,26.074218 24.6992188,26.2226562 C24.5507805,26.3710945 24.4765625,26.546874 24.4765625,26.75 L24.4765625,32 C24.4765625,32.203126 24.5507805,32.3789055 24.6992188,32.5273438 C24.847657,32.675782 25.0234365,32.75 25.2265625,32.75 L31.2265625,32.75 L31.2265625,34.25 L23.0703125,34.25 C22.960937,34.25 22.8554693,34.2695311 22.7539062,34.3085938 C22.6523432,34.3476564 22.5703128,34.4062496 22.5078125,34.484375 L20.1640625,37.15625 C20.0390619,37.2968757 19.9765625,37.4609366 19.9765625,37.6484375 C19.9765625,37.8359384 20.0390619,37.9999993 20.1640625,38.140625 L22.5078125,40.7890625 C22.5703128,40.8671879 22.6523432,40.9218748 22.7539062,40.953125 C22.8554693,40.9843752 22.960937,41 23.0703125,41 L31.2265625,41 L31.2265625,47.796875 C31.2265625,47.9843759 31.3007805,48.1484368 31.4492188,48.2890625 C31.597657,48.4296882 31.7734365,48.5 31.9765625,48.5 C32.1796885,48.5 32.355468,48.4296882 32.5039062,48.2890625 C32.6523445,48.1484368 32.7265625,47.9843759 32.7265625,47.796875 L32.7265625,41 L38.75,41 C38.953126,41 39.1289055,40.9296882 39.2773438,40.7890625 C39.425782,40.6484368 39.5,40.4687511 39.5,40.25 L39.5,35 C39.5,34.7812489 39.425782,34.6015632 39.2773438,34.4609375 C39.1289055,34.3203118 38.953126,34.25 38.75,34.25 L32.7265625,34.25 L32.7265625,32.75 L40.9296875,32.75 C41.039063,32.75 41.1445307,32.7265627 41.2460938,32.6796875 C41.3476568,32.6328123 41.4296872,32.5703129 41.4921875,32.4921875 L43.8359375,29.8671875 C43.9609381,29.7109367 44.0234375,29.5390634 44.0234375,29.3515625 C44.0234375,29.1640616 43.9609381,29.0000007 43.8359375,28.859375 L43.8359375,28.859375 Z M38,39.5 L23.3984375,39.5 L21.734375,37.6484375 L23.3984375,35.75 L38,35.75 L38,39.5 L38,39.5 Z M40.6015625,31.25 L25.9765625,31.25 L25.9765625,27.5 L40.6015625,27.5 L42.265625,29.3515625 L40.6015625,31.25 L40.6015625,31.25 Z" id="street-sign"></path>
                </g>
            </g>
        </g>
    </g>
</svg>