<?xml version="1.0" encoding="UTF-8"?>
<svg width="24px" height="25px" viewBox="0 0 24 25" version="1.1" xmlns="http://www.w3.org/2000/svg" xmlns:xlink="http://www.w3.org/1999/xlink">
    <!-- Generator: Sketch 40.3 (33839) - http://www.bohemiancoding.com/sketch -->
    <title>tracking-ppc</title>
    <desc>Created with Sketch.</desc>
    <defs></defs>
    <g id="Long-Form" stroke="none" stroke-width="1" fill="none" fill-rule="evenodd">
        <g id="Desktop-HD" transform="translate(-750.000000, -2528.000000)" fill="#6EB5F3">
            <g id="PPC-Research" transform="translate(-20.000000, 1715.000000)">
                <g id="Eight" transform="translate(750.000000, 789.000000)">
                    <path d="M43.25,35.75 L40.9765625,35.75 C40.882812,34.6562445 40.6054711,33.6289111 40.1445312,32.6679688 C39.6835914,31.7070264 39.0898474,30.8632849 38.3632812,30.1367188 C37.6367151,29.4101526 36.7929736,28.8164086 35.8320312,28.3554688 C34.8710889,27.8945289 33.8437555,27.6250004 32.75,27.546875 L32.75,25.25 C32.75,25.046874 32.675782,24.8710945 32.5273438,24.7226562 C32.3789055,24.574218 32.203126,24.5 32,24.5 C31.796874,24.5 31.6210945,24.574218 31.4726562,24.7226562 C31.324218,24.8710945 31.25,25.046874 31.25,25.25 L31.25,27.546875 C30.1562445,27.6250004 29.1289111,27.8945289 28.1679688,28.3554688 C27.2070264,28.8164086 26.3632849,29.4101526 25.6367188,30.1367188 C24.9101526,30.8632849 24.3164086,31.7070264 23.8554688,32.6679688 C23.3945289,33.6289111 23.117188,34.6562445 23.0234375,35.75 L20.75,35.75 C20.546874,35.75 20.3710945,35.824218 20.2226562,35.9726562 C20.074218,36.1210945 20,36.296874 20,36.5 C20,36.703126 20.074218,36.8789055 20.2226562,37.0273438 C20.3710945,37.175782 20.546874,37.25 20.75,37.25 L23.0234375,37.25 C23.117188,38.3437555 23.3945289,39.3710889 23.8554688,40.3320312 C24.3164086,41.2929736 24.9101526,42.1367151 25.6367188,42.8632812 C26.3632849,43.5898474 27.2070264,44.1835914 28.1679688,44.6445312 C29.1289111,45.1054711 30.1562445,45.3749996 31.25,45.453125 L31.25,47.75 C31.25,47.953126 31.324218,48.1289055 31.4726562,48.2773438 C31.6210945,48.425782 31.796874,48.5 32,48.5 C32.203126,48.5 32.3789055,48.425782 32.5273438,48.2773438 C32.675782,48.1289055 32.75,47.953126 32.75,47.75 L32.75,45.453125 C33.8437555,45.3749996 34.8710889,45.1054711 35.8320312,44.6445312 C36.7929736,44.1835914 37.6367151,43.5898474 38.3632812,42.8632812 C39.0898474,42.1367151 39.6835914,41.2929736 40.1445312,40.3320312 C40.6054711,39.3710889 40.882812,38.3437555 40.9765625,37.25 L43.25,37.25 C43.453126,37.25 43.6289055,37.175782 43.7773438,37.0273438 C43.925782,36.8789055 44,36.703126 44,36.5 C44,36.296874 43.925782,36.1210945 43.7773438,35.9726562 C43.6289055,35.824218 43.453126,35.75 43.25,35.75 L43.25,35.75 Z M31.25,29.046875 L31.25,35.75 L24.546875,35.75 C24.6250004,34.8593705 24.8554668,34.0273476 25.2382812,33.2539062 C25.6210957,32.4804649 26.109372,31.796878 26.703125,31.203125 C27.296878,30.609372 27.9804649,30.1210957 28.7539062,29.7382812 C29.5273476,29.3554668 30.3593705,29.1250004 31.25,29.046875 L31.25,29.046875 Z M24.546875,37.25 L31.25,37.25 L31.25,43.953125 C30.3593705,43.8749996 29.5273476,43.6445332 28.7539062,43.2617188 C27.9804649,42.8789043 27.296878,42.390628 26.703125,41.796875 C26.109372,41.203122 25.6210957,40.5195351 25.2382812,39.7460938 C24.8554668,38.9726524 24.6250004,38.1406295 24.546875,37.25 L24.546875,37.25 Z M32.75,43.953125 L32.75,37.25 L39.453125,37.25 C39.3749996,38.1406295 39.1445332,38.9726524 38.7617188,39.7460938 C38.3789043,40.5195351 37.890628,41.203122 37.296875,41.796875 C36.703122,42.390628 36.0195351,42.8789043 35.2460938,43.2617188 C34.4726524,43.6445332 33.6406295,43.8749996 32.75,43.953125 L32.75,43.953125 Z M32.75,35.75 L32.75,29.046875 C33.6406295,29.1250004 34.4726524,29.3554668 35.2460938,29.7382812 C36.0195351,30.1210957 36.703122,30.609372 37.296875,31.203125 C37.890628,31.796878 38.3789043,32.4804649 38.7617188,33.2539062 C39.1445332,34.0273476 39.3749996,34.8593705 39.453125,35.75 L32.75,35.75 L32.75,35.75 Z" id="tracking"></path>
                </g>
            </g>
        </g>
    </g>
</svg>