<?xml version="1.0" encoding="UTF-8"?>
<svg width="24px" height="25px" viewBox="0 0 24 25" version="1.1" xmlns="http://www.w3.org/2000/svg" xmlns:xlink="http://www.w3.org/1999/xlink">
    <!-- Generator: Sketch 40.3 (33839) - http://www.bohemiancoding.com/sketch -->
    <title>users-seo</title>
    <desc>Created with Sketch.</desc>
    <defs></defs>
    <g id="Long-Form" stroke="none" stroke-width="1" fill="none" fill-rule="evenodd">
        <g id="Desktop-HD" transform="translate(-750.000000, -3559.000000)" fill="#63C986">
            <g id="SEO-Research" transform="translate(-20.000000, 2742.000000)">
                <g id="Eight" transform="translate(750.000000, 793.000000)">
                    <path d="M37.484375,44.0703125 L32.7734375,41.46875 C33.6484419,40.7656215 34.2382797,39.8437557 34.5429688,38.703125 C34.8476578,37.5624943 35,36.6093788 35,35.84375 L35,32.6796875 C35,32.1484348 34.8398454,31.6210964 34.5195312,31.0976562 C34.1992171,30.5742161 33.7773464,30.1015646 33.2539062,29.6796875 C32.7304661,29.2578104 32.1328159,28.9140638 31.4609375,28.6484375 C30.7890591,28.3828112 30.101566,28.25 29.3984375,28.25 C28.7109341,28.25 28.0273471,28.3828112 27.3476562,28.6484375 C26.6679654,28.9140638 26.0625027,29.2578104 25.53125,29.6796875 C24.9999973,30.1015646 24.5703141,30.5742161 24.2421875,31.0976562 C23.9140609,31.6210964 23.75,32.1484348 23.75,32.6796875 L23.75,35.84375 C23.75,36.5312534 23.9218733,37.4609316 24.265625,38.6328125 C24.6093767,39.8046934 25.226558,40.742184 26.1171875,41.4453125 L21.265625,44.0703125 C21.265625,44.0703125 21.0546896,44.1953113 20.6328125,44.4453125 C20.2109354,44.6953137 20,44.9921858 20,45.3359375 L20,47.234375 C20,47.5937518 20.1249987,47.89453 20.375,48.1367188 C20.6250013,48.3789075 20.9218733,48.5 21.265625,48.5 L37.484375,48.5 C37.8281267,48.5 38.1249988,48.3789075 38.375,48.1367188 C38.6250012,47.89453 38.75,47.5937518 38.75,47.234375 L38.75,45.3359375 C38.75,44.9609356 38.5390646,44.6562512 38.1171875,44.421875 C37.6953104,44.1874988 37.484375,44.0703125 37.484375,44.0703125 L37.484375,44.0703125 Z M37.25,47 L21.5,47 L21.5,45.6640625 C21.5468752,45.6328123 21.6054684,45.5937502 21.6757812,45.546875 C21.7460941,45.4999998 21.8124997,45.4687501 21.875,45.453125 C21.8906251,45.4374999 21.9062499,45.4257813 21.921875,45.4179688 C21.9375001,45.4101562 21.9531249,45.40625 21.96875,45.40625 L26.8203125,42.7578125 C27.0390636,42.648437 27.2187493,42.4882823 27.359375,42.2773438 C27.5000007,42.0664052 27.5781249,41.8359387 27.59375,41.5859375 C27.6250002,41.3359363 27.5898443,41.0937512 27.4882812,40.859375 C27.3867182,40.6249988 27.2421884,40.4296883 27.0546875,40.2734375 C26.4140593,39.773435 25.9531264,39.0585984 25.671875,38.1289062 C25.3906236,37.1992141 25.25,36.437503 25.25,35.84375 L25.25,32.6796875 C25.25,32.1328098 25.675777,31.507816 26.5273438,30.8046875 C27.3789105,30.101559 28.3359322,29.75 29.3984375,29.75 C30.492193,29.75 31.4492146,30.101559 32.2695312,30.8046875 C33.0898479,31.507816 33.5,32.1328098 33.5,32.6796875 L33.5,35.84375 C33.5,36.437503 33.3828137,37.1992141 33.1484375,38.1289062 C32.9140613,39.0585984 32.4765657,39.773435 31.8359375,40.2734375 C31.6328115,40.4296883 31.4804693,40.6249988 31.3789062,40.859375 C31.2773432,41.0937512 31.2421873,41.3359363 31.2734375,41.5859375 C31.2890626,41.8359387 31.3671868,42.0664052 31.5078125,42.2773438 C31.6484382,42.4882823 31.8281239,42.6562494 32.046875,42.78125 L36.7578125,45.3828125 C36.7890627,45.3984376 36.8164061,45.4140624 36.8398438,45.4296875 C36.8632814,45.4453126 36.8828124,45.453125 36.8984375,45.453125 C36.9609378,45.4843752 37.0234372,45.5156248 37.0859375,45.546875 C37.1484378,45.5781252 37.2031248,45.6171873 37.25,45.6640625 L37.25,47 L37.25,47 Z M42.734375,40.34375 L37.953125,37.71875 C38.8281294,37.0312466 39.4296859,36.113287 39.7578125,34.9648438 C40.0859391,33.8164005 40.25,32.8671913 40.25,32.1171875 L40.25,28.953125 C40.25,28.4218723 40.0859391,27.8906277 39.7578125,27.359375 C39.4296859,26.8281223 39.0000027,26.3515646 38.46875,25.9296875 C37.9374973,25.5078104 37.3320346,25.1601576 36.6523438,24.8867188 C35.9726529,24.6132799 35.2812535,24.4765625 34.578125,24.4765625 C33.6718705,24.4765625 32.7890668,24.6953103 31.9296875,25.1328125 C31.0703082,25.5703147 30.3671902,26.1093718 29.8203125,26.75 C30.1328141,26.7656251 30.4531234,26.7812499 30.78125,26.796875 C31.1093766,26.8125001 31.4218735,26.867187 31.71875,26.9609375 C32.109377,26.664061 32.5507788,26.4296884 33.0429688,26.2578125 C33.5351587,26.0859366 34.0468723,26 34.578125,26 C35.6718805,26 36.6406208,26.351559 37.484375,27.0546875 C38.3281292,27.757816 38.75,28.3906222 38.75,28.953125 L38.75,32.1171875 C38.75,32.6953154 38.621095,33.4492141 38.3632812,34.3789062 C38.1054675,35.3085984 37.6562532,36.0312474 37.015625,36.546875 C36.812499,36.7031258 36.6601568,36.8984363 36.5585938,37.1328125 C36.4570307,37.3671887 36.4218748,37.6093738 36.453125,37.859375 C36.4687501,38.1093762 36.5468743,38.3398427 36.6875,38.5507812 C36.8281257,38.7617198 37.0078114,38.9296869 37.2265625,39.0546875 L42.0078125,41.65625 C42.0390627,41.6718751 42.0664061,41.6835937 42.0898438,41.6914062 C42.1132814,41.6992188 42.1328124,41.7109374 42.1484375,41.7265625 C42.2109378,41.7421876 42.2734372,41.7695311 42.3359375,41.8085938 C42.3984378,41.8476564 42.4531248,41.8828123 42.5,41.9140625 L42.5,43.25 L39.4765625,43.25 C39.6953136,43.4218759 39.8554682,43.6328113 39.9570312,43.8828125 C40.0585943,44.1328137 40.1562495,44.4218734 40.25,44.75 L42.734375,44.75 C43.0781267,44.75 43.3749988,44.6289075 43.625,44.3867188 C43.8750012,44.14453 44,43.8437518 44,43.484375 L44,41.609375 C44,41.2343731 43.7890646,40.9296887 43.3671875,40.6953125 C42.9453104,40.4609363 42.734375,40.34375 42.734375,40.34375 L42.734375,40.34375 Z" id="users"></path>
                </g>
            </g>
        </g>
    </g>
</svg>