<?xml version="1.0" encoding="UTF-8"?>
<svg width="24px" height="23px" viewBox="0 0 24 23" version="1.1" xmlns="http://www.w3.org/2000/svg" xmlns:xlink="http://www.w3.org/1999/xlink">
    <!-- Generator: Sketch 40.3 (33839) - http://www.bohemiancoding.com/sketch -->
    <title>wallet-seo</title>
    <desc>Created with Sketch.</desc>
    <defs></defs>
    <g id="Long-Form" stroke="none" stroke-width="1" fill="none" fill-rule="evenodd">
        <g id="Desktop-HD" transform="translate(-160.000000, -3236.000000)" fill="#63C986">
            <g id="SEO-Research" transform="translate(-20.000000, 2742.000000)">
                <g id="Three" transform="translate(160.000000, 469.000000)">
                    <path d="M44,31.296875 C44,31.0312487 43.9062509,30.6406276 43.71875,30.125 C43.5312491,29.6093724 43.0156292,29.2343762 42.171875,29 L25.2265625,25.625 C24.6171845,25.625 24.089846,25.8437478 23.6445312,26.28125 C23.1992165,26.7187522 22.9765625,27.2499969 22.9765625,27.875 L22.9765625,30.875 L22.2265625,30.875 C21.6171845,30.8906251 21.0937522,31.1171853 20.65625,31.5546875 C20.2187478,31.9921897 20,32.515622 20,33.125 L20,45.125 C20,45.7500031 20.2187478,46.2812478 20.65625,46.71875 C21.0937522,47.1562522 21.6249969,47.375 22.25,47.375 L41.75,47.375 C42.3750031,47.375 42.9062478,47.1562522 43.34375,46.71875 C43.7812522,46.2812478 44,45.7500031 44,45.125 L44,31.296875 L44,31.296875 Z M24.4765625,27.875 C24.4765625,27.671874 24.5429681,27.5000007 24.6757812,27.359375 C24.8085944,27.2187493 24.9765615,27.1406251 25.1796875,27.125 L41.7265625,30.4765625 C41.7265625,30.4765625 41.679688,30.5468743 41.5859375,30.6875 C41.492187,30.8281257 41.2968765,30.8906251 41,30.875 L24.4765625,30.875 L24.4765625,27.875 L24.4765625,27.875 Z M42.5,45.125 C42.5,45.328126 42.425782,45.5039055 42.2773438,45.6523438 C42.1289055,45.800782 41.953126,45.875 41.75,45.875 L22.25,45.875 C22.046874,45.875 21.8710945,45.800782 21.7226562,45.6523438 C21.574218,45.5039055 21.5,45.328126 21.5,45.125 L21.5,33.125 C21.5,32.921874 21.574218,32.7460945 21.7226562,32.5976562 C21.8710945,32.449218 22.046874,32.375 22.25,32.375 L41,32.375 C41.3593768,32.375 41.6992171,32.3125006 42.0195312,32.1875 C42.3398454,32.0624994 42.5,31.8750013 42.5,31.625 L42.5,45.125 L42.5,45.125 Z M24.5,37.625 C24.0781229,37.625 23.7226577,37.773436 23.4335938,38.0703125 C23.1445298,38.367189 23,38.718748 23,39.125 C23,39.5468771 23.1445298,39.9023423 23.4335938,40.1914062 C23.7226577,40.4804702 24.0781229,40.625 24.5,40.625 C24.906252,40.625 25.257811,40.4804702 25.5546875,40.1914062 C25.851564,39.9023423 26,39.5468771 26,39.125 C26,38.718748 25.851564,38.367189 25.5546875,38.0703125 C25.257811,37.773436 24.906252,37.625 24.5,37.625 L24.5,37.625 Z" id="wallet"></path>
                </g>
            </g>
        </g>
    </g>
</svg>